<svg xmlns="http://www.w3.org/2000/svg" xmlns:xlink="http://www.w3.org/1999/xlink" width="500" zoomAndPan="magnify" viewBox="0 0 375 374.999991" height="500" preserveAspectRatio="xMidYMid meet" version="1.0"><defs><g/><clipPath id="66b4db2401"><rect x="0" width="367" y="0" height="234"/></clipPath></defs><g transform="matrix(1, 0, 0, 1, 6, 71)"><g clip-path="url(#66b4db2401)"><g fill="#00e8ff" fill-opacity="1"><g transform="translate(1.193256, 182.998851)"><g><path d="M 15.8125 -133.34375 L 46.671875 -133.34375 L 46.671875 -25.140625 L 113.53125 -25.140625 L 113.53125 0 L 15.8125 0 Z M 15.8125 -133.34375 "/></g></g></g><g fill="#00e8ff" fill-opacity="1"><g transform="translate(116.23702, 182.998851)"><g><path d="M 119.046875 -24.765625 L 119.046875 0 L 15.8125 0 L 15.8125 -133.34375 L 116.578125 -133.34375 L 116.578125 -108.578125 L 46.484375 -108.578125 L 46.484375 -79.625 L 108.390625 -79.625 L 108.390625 -55.625 L 46.484375 -55.625 L 46.484375 -24.765625 Z M 119.046875 -24.765625 "/></g></g></g><g fill="#00e8ff" fill-opacity="1"><g transform="translate(244.042249, 182.998851)"><g><path d="M 43.4375 -108.1875 L 0.765625 -108.1875 L 0.765625 -133.34375 L 116.953125 -133.34375 L 116.953125 -108.1875 L 74.28125 -108.1875 L 74.28125 0 L 43.4375 0 Z M 43.4375 -108.1875 "/></g></g></g><g fill="#ffffff" fill-opacity="1"><g transform="translate(1.193256, 182.998851)"><g><path d="M 15.808594 -133.988281 L 47.320312 -133.988281 L 47.320312 -25.144531 L 46.667969 -25.144531 L 46.667969 -25.796875 L 114.179688 -25.796875 L 114.179688 0.65625 L 15.15625 0.65625 L 15.15625 -133.988281 Z M 15.808594 -132.679688 L 15.808594 -133.335938 L 16.464844 -133.335938 L 16.464844 0 L 15.808594 0 L 15.808594 -0.65625 L 113.523438 -0.65625 L 113.523438 0 L 112.871094 0 L 112.871094 -25.144531 L 113.523438 -25.144531 L 113.523438 -24.488281 L 46.011719 -24.488281 L 46.011719 -133.335938 L 46.667969 -133.335938 L 46.667969 -132.679688 Z M 15.808594 -132.679688 "/></g></g></g><g fill="#ffffff" fill-opacity="1"><g transform="translate(116.23702, 182.998851)"><g><path d="M 119.703125 -24.761719 L 119.703125 0.65625 L 15.15625 0.65625 L 15.15625 -133.988281 L 117.226562 -133.988281 L 117.226562 -107.917969 L 46.476562 -107.917969 L 46.476562 -108.574219 L 47.132812 -108.574219 L 47.132812 -79.621094 L 46.476562 -79.621094 L 46.476562 -80.273438 L 109.035156 -80.273438 L 109.035156 -54.964844 L 46.476562 -54.964844 L 46.476562 -55.621094 L 47.132812 -55.621094 L 47.132812 -24.761719 L 46.476562 -24.761719 L 46.476562 -25.417969 L 119.703125 -25.417969 Z M 118.394531 -24.761719 L 119.046875 -24.761719 L 119.046875 -24.105469 L 45.820312 -24.105469 L 45.820312 -56.273438 L 108.382812 -56.273438 L 108.382812 -55.621094 L 107.726562 -55.621094 L 107.726562 -79.621094 L 108.382812 -79.621094 L 108.382812 -78.964844 L 45.820312 -78.964844 L 45.820312 -109.226562 L 116.574219 -109.226562 L 116.574219 -108.574219 L 115.917969 -108.574219 L 115.917969 -133.335938 L 116.574219 -133.335938 L 116.574219 -132.679688 L 15.808594 -132.679688 L 15.808594 -133.335938 L 16.464844 -133.335938 L 16.464844 0 L 15.808594 0 L 15.808594 -0.65625 L 119.046875 -0.65625 L 119.046875 0 L 118.394531 0 Z M 118.394531 -24.761719 "/></g></g></g><g fill="#ffffff" fill-opacity="1"><g transform="translate(244.042249, 182.998851)"><g><path d="M 43.429688 -107.535156 L 0.105469 -107.535156 L 0.105469 -133.988281 L 117.609375 -133.988281 L 117.609375 -107.535156 L 74.285156 -107.535156 L 74.285156 -108.191406 L 74.941406 -108.191406 L 74.941406 0.65625 L 42.773438 0.65625 L 42.773438 -108.191406 L 43.429688 -108.191406 Z M 44.082031 -108.847656 L 44.082031 0 L 43.429688 0 L 43.429688 -0.65625 L 74.285156 -0.65625 L 74.285156 0 L 73.632812 0 L 73.632812 -108.847656 L 116.953125 -108.847656 L 116.953125 -108.191406 L 116.296875 -108.191406 L 116.296875 -133.335938 L 116.953125 -133.335938 L 116.953125 -132.679688 L 0.761719 -132.679688 L 0.761719 -133.335938 L 1.417969 -133.335938 L 1.417969 -108.191406 L 0.761719 -108.191406 L 0.761719 -108.847656 Z M 44.082031 -108.847656 "/></g></g></g></g></g></svg>